<svg xmlns="http://www.w3.org/2000/svg" xmlns:xlink="http://www.w3.org/1999/xlink" width="1200" zoomAndPan="magnify" viewBox="0 0 900 444.749984" height="593" preserveAspectRatio="xMidYMid meet" version="1.2"><defs><clipPath id="1d4d36f0e5"><path d="M 615 57 L 811 57 L 811 247 L 615 247 Z M 615 57 "/></clipPath><clipPath id="74a27d6bec"><path d="M 681.492188 5.367188 L 848.179688 108.375 L 750.277344 266.800781 L 583.589844 163.789062 Z M 681.492188 5.367188 "/></clipPath><clipPath id="ad918426fa"><path d="M 681.492188 5.367188 L 848.179688 108.375 L 750.277344 266.800781 L 583.589844 163.789062 Z M 681.492188 5.367188 "/></clipPath><clipPath id="100586a5ed"><path d="M 615 56 L 811 56 L 811 247 L 615 247 Z M 615 56 "/></clipPath><clipPath id="b8cc2efd83"><path d="M 681.492188 5.367188 L 848.179688 108.375 L 750.277344 266.800781 L 583.589844 163.789062 Z M 681.492188 5.367188 "/></clipPath><clipPath id="f688866a77"><path d="M 681.492188 5.367188 L 848.179688 108.375 L 750.277344 266.800781 L 583.589844 163.789062 Z M 681.492188 5.367188 "/></clipPath><clipPath id="fcfd760000"><path d="M 615 56 L 816 56 L 816 216 L 615 216 Z M 615 56 "/></clipPath><clipPath id="11e2a9479d"><path d="M 645.644531 52.753906 L 819.429688 104.671875 L 785.128906 219.492188 L 611.339844 167.574219 Z M 645.644531 52.753906 "/></clipPath><clipPath id="0bd5277efe"><path d="M 645.644531 52.753906 L 819.429688 104.671875 L 785.128906 219.492188 L 611.339844 167.574219 Z M 645.644531 52.753906 "/></clipPath><clipPath id="74906c6c25"><path d="M 645.761719 52.789062 L 819.332031 104.640625 L 785.195312 218.902344 L 611.625 167.050781 Z M 645.761719 52.789062 "/></clipPath><clipPath id="9c8a02861a"><path d="M 633 75 L 812 75 L 812 151 L 633 151 Z M 633 75 "/></clipPath><clipPath id="d47c784a88"><path d="M 645.644531 52.753906 L 819.429688 104.671875 L 785.128906 219.492188 L 611.339844 167.574219 Z M 645.644531 52.753906 "/></clipPath><clipPath id="8516564293"><path d="M 645.644531 52.753906 L 819.429688 104.671875 L 785.128906 219.492188 L 611.339844 167.574219 Z M 645.644531 52.753906 "/></clipPath><clipPath id="e066f999f4"><path d="M 635 123 L 663 123 L 663 157 L 635 157 Z M 635 123 "/></clipPath><clipPath id="dbb2dd7fcd"><path d="M 645.644531 52.753906 L 819.429688 104.671875 L 785.128906 219.492188 L 611.339844 167.574219 Z M 645.644531 52.753906 "/></clipPath><clipPath id="3b8b22f297"><path d="M 645.644531 52.753906 L 819.429688 104.671875 L 785.128906 219.492188 L 611.339844 167.574219 Z M 645.644531 52.753906 "/></clipPath><clipPath id="8096282a77"><path d="M 652 128 L 687 128 L 687 163 L 652 163 Z M 652 128 "/></clipPath><clipPath id="2be1cac0df"><path d="M 645.644531 52.753906 L 819.429688 104.671875 L 785.128906 219.492188 L 611.339844 167.574219 Z M 645.644531 52.753906 "/></clipPath><clipPath id="ab71605630"><path d="M 645.644531 52.753906 L 819.429688 104.671875 L 785.128906 219.492188 L 611.339844 167.574219 Z M 645.644531 52.753906 "/></clipPath><clipPath id="6dcf0b714d"><path d="M 696 150 L 781 150 L 781 182 L 696 182 Z M 696 150 "/></clipPath><clipPath id="1d0c3561fd"><path d="M 645.644531 52.753906 L 819.429688 104.671875 L 785.128906 219.492188 L 611.339844 167.574219 Z M 645.644531 52.753906 "/></clipPath><clipPath id="a2f46ca09a"><path d="M 645.644531 52.753906 L 819.429688 104.671875 L 785.128906 219.492188 L 611.339844 167.574219 Z M 645.644531 52.753906 "/></clipPath></defs><g id="6dee7508b7"><path style=" stroke:none;fill-rule:nonzero;fill:#55298b;fill-opacity:1;" d="M 559.390625 268.722656 C 559.390625 258.90625 551.433594 250.957031 541.625 250.957031 L 352.917969 250.957031 C 343.109375 250.957031 335.152344 258.90625 335.152344 268.722656 C 335.152344 278.53125 343.109375 286.492188 352.917969 286.492188 L 541.625 286.492188 C 551.433594 286.492188 559.390625 278.53125 559.390625 268.722656 Z M 739.761719 181.164062 L 716.453125 240.992188 L 683.144531 186.09375 L 619.039062 182.410156 L 660.953125 133.777344 L 644.648438 71.671875 L 703.859375 96.503906 L 757.890625 61.796875 L 752.570312 125.792969 L 802.265625 166.449219 Z M 646.789062 425.621094 C 638.359375 425.621094 631.519531 418.78125 631.519531 410.351562 C 631.519531 401.914062 638.359375 395.074219 646.789062 395.074219 C 655.226562 395.074219 662.0625 401.914062 662.0625 410.351562 C 662.0625 418.78125 655.226562 425.621094 646.789062 425.621094 Z M 467.535156 425.621094 C 459.105469 425.621094 452.269531 418.78125 452.269531 410.351562 C 452.269531 401.914062 459.105469 395.074219 467.535156 395.074219 C 475.976562 395.074219 482.8125 401.914062 482.8125 410.351562 C 482.8125 418.78125 475.976562 425.621094 467.535156 425.621094 Z M 842.214844 35 L 390.058594 35 C 384.5 27.515625 383.546875 26.238281 377.984375 18.75 C 380.835938 7.925781 370.621094 0.652344 361.78125 0.652344 L 132.007812 0.652344 C 109.109375 0.652344 109.144531 36.183594 132.007812 36.183594 L 315.839844 36.183594 C 291.070312 41.976562 275.941406 68.394531 284.398438 93.035156 L 335.539062 93.035156 C 350.039062 93.035156 361.691406 105.519531 360.292969 120.304688 C 359.082031 133.195312 347.753906 142.78125 334.808594 142.78125 L 329.074219 142.78125 C 319.578125 142.78125 313.371094 152.746094 317.570312 161.277344 C 319.726562 165.664062 324.1875 168.4375 329.074219 168.4375 L 465.046875 168.4375 C 479.546875 168.4375 491.195312 180.921875 489.800781 195.707031 C 488.585938 208.597656 477.261719 218.183594 464.316406 218.183594 L 366.195312 218.183594 C 356.695312 218.183594 350.484375 228.160156 354.683594 236.679688 C 356.839844 241.066406 361.3125 243.851562 366.195312 243.851562 L 540.894531 243.851562 C 553.839844 243.851562 565.164062 253.4375 566.378906 266.328125 C 567.773438 281.113281 556.125 293.597656 541.625 293.597656 L 382.695312 293.597656 L 392.578125 313.667969 C 399.960938 328.683594 415.257812 338.207031 431.996094 338.207031 L 687.453125 338.207031 C 688.113281 338.207031 688.75 338.179688 689.398438 338.140625 C 683.363281 350.742188 670.523438 359.523438 655.679688 359.523438 L 425.738281 359.523438 C 417.855469 359.523438 411.492188 366.039062 411.730469 373.976562 C 411.960938 381.648438 418.652344 387.5625 426.332031 387.5625 L 446.828125 387.5625 C 440.628906 393.207031 436.714844 401.3125 436.714844 410.351562 C 436.714844 428.527344 452.433594 443.023438 471.015625 440.980469 C 485.191406 439.433594 496.648438 427.933594 498.183594 413.757812 C 499.300781 403.367188 495.222656 393.902344 488.253906 387.5625 L 626.078125 387.5625 C 619.878906 393.207031 615.964844 401.3125 615.964844 410.351562 C 615.964844 427.792969 630.457031 441.851562 648.054688 441.148438 C 664.089844 440.507812 677.238281 427.109375 677.609375 411.066406 C 677.832031 401.246094 673.464844 392.449219 666.503906 386.65625 C 697.328125 381.5 720.921875 354.730469 721.097656 322.503906 C 721.800781 321.660156 722.496094 320.808594 723.144531 319.902344 L 877.902344 104.59375 C 898.796875 75.519531 878.023438 35 842.214844 35 Z M 482.804688 193.859375 C 483.101562 183.800781 475.039062 175.546875 465.046875 175.546875 L 315.589844 175.546875 C 305.773438 175.546875 297.824219 183.503906 297.824219 193.3125 C 297.824219 203.121094 305.773438 211.078125 315.589844 211.078125 L 464.296875 211.078125 C 474.03125 211.078125 482.507812 203.582031 482.804688 193.859375 Z M 271.769531 193.3125 C 271.769531 183.503906 263.8125 175.546875 254.003906 175.546875 L 195.761719 175.546875 C 172.851562 175.546875 172.898438 211.078125 195.761719 211.078125 L 254.003906 211.078125 C 263.8125 211.078125 271.769531 203.121094 271.769531 193.3125 Z M 145.039062 117.90625 C 145.039062 108.089844 137.082031 100.140625 127.273438 100.140625 L 23.046875 100.140625 C 0.144531 100.140625 0.179688 135.675781 23.046875 135.675781 L 127.273438 135.675781 C 137.082031 135.675781 145.039062 127.714844 145.039062 117.90625 Z M 291.328125 250.957031 L 123.421875 250.957031 C 100.519531 250.957031 100.558594 286.492188 123.421875 286.492188 L 291.328125 286.492188 C 301.136719 286.492188 309.09375 278.53125 309.09375 268.722656 C 309.09375 258.90625 301.136719 250.957031 291.328125 250.957031 Z M 334.792969 135.675781 C 344.527344 135.675781 353 128.179688 353.296875 118.453125 C 353.59375 108.394531 345.535156 100.140625 335.539062 100.140625 L 188.859375 100.140625 C 179.042969 100.140625 171.09375 108.089844 171.09375 117.90625 C 171.09375 127.714844 179.042969 135.675781 188.859375 135.675781 L 334.792969 135.675781 "/><g clip-rule="nonzero" clip-path="url(#1d4d36f0e5)"><g clip-rule="nonzero" clip-path="url(#74a27d6bec)"><g clip-rule="nonzero" clip-path="url(#ad918426fa)"><path style=" stroke:none;fill-rule:nonzero;fill:#55298b;fill-opacity:1;" d="M 764.535156 57.4375 L 758.058594 125.222656 L 810.234375 168.976562 L 743.738281 183.800781 L 718.28125 246.964844 L 683.65625 188.320312 L 615.679688 183.558594 L 660.753906 132.519531 L 644.300781 66.433594 L 706.773438 93.527344 Z M 764.535156 57.4375 "/></g></g></g><g clip-rule="nonzero" clip-path="url(#100586a5ed)"><g clip-rule="nonzero" clip-path="url(#b8cc2efd83)"><g clip-rule="nonzero" clip-path="url(#f688866a77)"><path style=" stroke:none;fill-rule:nonzero;fill:#55298b;fill-opacity:1;" d="M 764.445312 56.695312 L 758 124.496094 L 810.179688 168.253906 L 743.679688 183.078125 L 718.191406 246.21875 L 683.5625 187.574219 L 615.625 182.835938 L 660.699219 131.792969 L 644.210938 65.691406 L 706.683594 92.785156 Z M 764.445312 56.695312 "/><path style=" stroke:none;fill-rule:nonzero;fill:#55298b;fill-opacity:1;" d="M 764.445312 56.695312 L 758 124.496094 L 810.179688 168.253906 L 743.679688 183.078125 L 718.191406 246.21875 L 683.5625 187.574219 L 615.625 182.835938 L 660.699219 131.792969 L 644.210938 65.691406 L 706.683594 92.785156 Z M 764.445312 56.695312 "/><path style=" stroke:none;fill-rule:nonzero;fill:#55298b;fill-opacity:1;" d="M 764.445312 56.695312 L 758 124.496094 L 810.179688 168.253906 L 743.679688 183.078125 L 718.191406 246.21875 L 683.5625 187.574219 L 615.625 182.835938 L 660.699219 131.792969 L 644.210938 65.691406 L 706.683594 92.785156 Z M 764.445312 56.695312 "/></g></g></g><g clip-rule="nonzero" clip-path="url(#fcfd760000)"><g clip-rule="nonzero" clip-path="url(#11e2a9479d)"><g clip-rule="nonzero" clip-path="url(#0bd5277efe)"><g clip-rule="nonzero" clip-path="url(#74906c6c25)"><path style=" stroke:none;fill-rule:evenodd;fill:#ffbe00;fill-opacity:1;" d="M 660.175781 57.09375 L 804.917969 100.332031 C 808.75 101.476562 811.9375 104.089844 813.835938 107.605469 C 815.734375 111.125 816.171875 115.222656 815.027344 119.054688 L 789.503906 204.488281 C 788.359375 208.320312 785.746094 211.507812 782.226562 213.410156 C 778.710938 215.308594 774.613281 215.742188 770.78125 214.597656 L 626.039062 171.355469 C 622.210938 170.210938 619.019531 167.601562 617.121094 164.085938 C 615.222656 160.566406 614.789062 156.46875 615.933594 152.636719 L 641.457031 67.199219 C 642.601562 63.367188 645.210938 60.179688 648.730469 58.28125 C 652.246094 56.382812 656.34375 55.949219 660.175781 57.09375 Z M 802.523438 108.34375 L 657.785156 65.101562 C 656.082031 64.59375 654.265625 64.792969 652.703125 65.636719 C 651.140625 66.480469 649.976562 67.890625 649.46875 69.59375 L 623.945312 155.03125 C 623.4375 156.734375 623.632812 158.550781 624.476562 160.113281 C 625.320312 161.671875 626.730469 162.839844 628.433594 163.347656 L 773.171875 206.585938 C 774.878906 207.097656 776.695312 206.894531 778.257812 206.054688 C 779.820312 205.210938 780.984375 203.800781 781.492188 202.097656 L 807.015625 116.660156 C 807.523438 114.957031 807.324219 113.140625 806.480469 111.578125 C 805.636719 110.015625 804.230469 108.851562 802.523438 108.34375 "/></g></g></g></g><g clip-rule="nonzero" clip-path="url(#9c8a02861a)"><g clip-rule="nonzero" clip-path="url(#d47c784a88)"><g clip-rule="nonzero" clip-path="url(#8516564293)"><path style=" stroke:none;fill-rule:nonzero;fill:#ffbe00;fill-opacity:1;" d="M 810.503906 129.324219 L 804.203125 150.40625 L 633.304688 99.351562 L 640.402344 75.601562 L 811.300781 126.65625 L 810.503906 129.324219 "/></g></g></g><g clip-rule="nonzero" clip-path="url(#e066f999f4)"><g clip-rule="nonzero" clip-path="url(#dbb2dd7fcd)"><g clip-rule="nonzero" clip-path="url(#3b8b22f297)"><path style=" stroke:none;fill-rule:nonzero;fill:#ffbe00;fill-opacity:1;" d="M 657 124.191406 C 658.9375 124.769531 660.699219 125.671875 662.238281 126.828125 C 662.375 126.929688 662.507812 127.03125 662.640625 127.136719 C 661.832031 127.445312 661.042969 127.804688 660.273438 128.222656 C 655.707031 130.6875 652.335938 134.832031 650.847656 139.804688 C 649.363281 144.773438 649.910156 150.089844 652.375 154.65625 C 652.789062 155.425781 653.253906 156.160156 653.761719 156.859375 C 653.59375 156.875 653.425781 156.886719 653.257812 156.898438 C 651.335938 157.019531 649.367188 156.8125 647.429688 156.230469 C 643.003906 154.910156 639.535156 151.921875 637.5 148.15625 C 635.46875 144.390625 634.871094 139.847656 636.191406 135.425781 C 637.515625 131 640.503906 127.53125 644.269531 125.496094 C 648.035156 123.464844 652.578125 122.867188 657 124.191406 "/></g></g></g><g clip-rule="nonzero" clip-path="url(#8096282a77)"><g clip-rule="nonzero" clip-path="url(#2be1cac0df)"><g clip-rule="nonzero" clip-path="url(#ab71605630)"><path style=" stroke:none;fill-rule:nonzero;fill:#ffbe00;fill-opacity:1;" d="M 661.597656 130.671875 C 665.363281 128.640625 669.902344 128.042969 674.328125 129.367188 C 678.753906 130.6875 682.222656 133.675781 684.253906 137.441406 C 686.285156 141.207031 686.886719 145.75 685.5625 150.171875 C 684.242188 154.597656 681.25 158.066406 677.484375 160.101562 C 673.722656 162.132812 669.179688 162.730469 664.753906 161.40625 C 660.332031 160.085938 656.859375 157.097656 654.828125 153.332031 C 652.792969 149.566406 652.199219 145.023438 653.519531 140.601562 C 654.839844 136.175781 657.832031 132.707031 661.597656 130.671875 "/></g></g></g><g clip-rule="nonzero" clip-path="url(#6dcf0b714d)"><g clip-rule="nonzero" clip-path="url(#1d0c3561fd)"><g clip-rule="nonzero" clip-path="url(#a2f46ca09a)"><path style=" stroke:none;fill-rule:evenodd;fill:#ffbe00;fill-opacity:1;" d="M 701.457031 150.558594 L 718.5625 155.667969 C 720.644531 156.292969 721.796875 158.589844 721.136719 160.800781 C 720.476562 163.015625 718.253906 164.304688 716.171875 163.679688 L 699.0625 158.570312 C 696.980469 157.949219 695.824219 155.648438 696.488281 153.4375 C 697.148438 151.226562 699.375 149.9375 701.457031 150.558594 Z M 731.253906 159.460938 L 748.359375 164.570312 C 750.441406 165.191406 751.597656 167.492188 750.9375 169.703125 C 750.277344 171.917969 748.050781 173.203125 745.96875 172.582031 L 728.859375 167.472656 C 726.777344 166.847656 725.625 164.550781 726.285156 162.339844 C 726.945312 160.128906 729.171875 158.839844 731.253906 159.460938 Z M 761.050781 168.363281 L 778.15625 173.472656 C 780.242188 174.09375 781.394531 176.394531 780.734375 178.605469 C 780.074219 180.816406 777.847656 182.105469 775.765625 181.484375 L 758.65625 176.375 C 756.574219 175.75 755.421875 173.453125 756.082031 171.242188 C 756.742188 169.03125 758.96875 167.738281 761.050781 168.363281 "/></g></g></g></g></svg>